
<svg width="149" height="39" viewBox="0 0 149 39" fill="none" xmlns="http://www.w3.org/2000/svg">
<g clip-path="url(#clip0_1_1324)">
<path d="M26 0H13V13H26V0Z" fill="#00FFA3"/>
<path d="M13 13H0V26H13V13Z" fill="#00FFA3"/>
<path d="M26 26H13V39H26V26Z" fill="#00FFA3"/>
<path d="M35.5601 4.44995H52.7601C55.5701 4.44995 57.6301 5.08995 58.9501 6.35995C60.2701 7.63995 60.9301 9.57995 60.9301 12.19C60.9301 13.91 60.5601 15.31 59.8101 16.38C59.0601 17.46 58.1501 18.21 57.0601 18.64C59.3801 19.27 60.9601 20.82 61.7901 23.28C62.0801 24.17 62.2201 25.2 62.2201 26.38C62.2201 29.19 61.5601 31.25 60.2401 32.57C58.9201 33.89 56.8601 34.5499 54.0501 34.5499H35.5601V4.44995ZM53.1901 13.05C53.1901 11.33 52.3301 10.47 50.6101 10.47H43.3001V16.49H50.6101C52.3301 16.49 53.1901 15.63 53.1901 13.91V13.05ZM54.4801 25.09C54.4801 23.37 53.6201 22.51 51.9001 22.51H43.3001V28.53H51.9001C53.6201 28.53 54.4801 27.67 54.4801 25.95V25.09Z" fill="white"/>
<path d="M75.1201 12.62V34.55H67.6001V18.42H64.3701V12.61H75.1201V12.62ZM67.6001 4.02002H75.1201V10.04H67.6001V4.02002Z" fill="white"/>
<path d="M95.3301 34.5501C92.5501 34.8401 89.8301 34.9801 87.1601 34.9801C85.2101 34.9801 83.6501 34.3901 82.4701 33.2201C81.2901 32.0401 80.7101 30.4801 80.7101 28.5301V17.5601H78.1301V11.7501H80.7101L81.5701 6.59009H88.2401V11.7501H93.6201V17.5601H88.2401V27.4501C88.2401 27.8801 88.3801 28.2401 88.6701 28.5301C88.9601 28.8201 89.3201 28.9601 89.7501 28.9601H95.3401V34.5501H95.3301Z" fill="white"/>
<path d="M105.87 12.19C108.65 11.62 111.09 11.33 113.18 11.33H115.11C117.06 11.33 118.62 11.92 119.8 13.09C120.97 14.27 121.56 15.83 121.56 17.78V34.5499H114.03V18.64C114.03 18.21 113.89 17.85 113.6 17.57C113.31 17.28 112.95 17.14 112.52 17.14H111.02C109.93 17.14 108.93 17.2 108.03 17.31C107.13 17.43 106.4 17.51 105.86 17.57V34.5499H98.3401V4.44995H105.86V12.19H105.87Z" fill="white"/>
<path d="M135.97 28.74C137.49 28.74 139.21 28.45 141.13 27.88V11.76H148.66V34.55H141.99L141.56 32.4C140.21 33.29 138.83 33.94 137.41 34.36C135.99 34.78 134.79 34.98 133.82 34.98H131.88C129.93 34.98 128.37 34.39 127.19 33.22C126.01 32.04 125.43 30.48 125.43 28.53V11.76H132.95V27.24C132.95 27.67 133.09 28.03 133.38 28.32C133.67 28.61 134.02 28.75 134.45 28.75H135.97V28.74Z" fill="white"/>
</g>
<defs>
<clipPath id="clip0_1_1324">
<rect width="148.65" height="39" fill="white"/>
</clipPath>
</defs>
</svg>
